#0 w200  t41
#0 @14 q7f  v130 y10

r4f+16r16d16r16a8d16r16f+16r16d16r16
a+8d16r16f+16r16d16r16b8f+16r16f+16r16d16r16
>c8<d16r16<b16r16g16r16>g8<b16r16b16r16g+16r16
>e8<b16r16>c+16r16<a16r16>g8f+8e16f+16e16d16
c+16<b16a16g16>f+16r16d16r16a8d16r16f+16r16d16r16
a+8d16r16f+16r16d16r16b8f+16r16f+16r16d16r16
>c8<d16r16<b16r16g16r16>g8<b16r16b16r16g+16r16
>e8<b16r16>c+16r16<a16r16>g8c+8<a16>c+16e16g16
a16>c+16e16a16o4

@11

g8b8>d8f+4g4
[d8<a8>c+8e8g4a4
e8<g8b8>d8f+4g4]3
d8<a8>c+8e8g4a

#1 w200  t41
#1 @6 q7f  v180 y10
<<r4<d8r4d32r32d32r32d16r16d8^16
r16a+16r16d8r4d32r32d32r32d16r16d8^16
r16>c16r16<g8r4g32r32g32r32<g+16r16g+8^16
r16>d16r16a8r4a32r32a32r32<a16r16a8^16
r16>c+8d8r4d32r32d32r32d16r16d8^16
r16a+16r16d8r4d32r32d32r32d16r16d8^16
r16>c16r16<g8r4g32r32g32r32<g+16r16g+8^16
r16>d16r16a8r4a32r32a32r32<a16r16a8^16
@0
>>r16>c+86b4^8a4^8<
>g4e2r2
>b4^8a4^8
>d4c+2r2<
<b4^8a4^8
g4e2r2
>b4^8a4^8
>d4e2r2><


#2 w200  t41
#2 @0 q7f  v180 y10

<<d8e8f+4a4g8f+8
e8g8f+4^8d8<a4^8
g16a16b4>d4e8d8
c+8d8e4^8f+8e4
r8d16e16f+4a4a+8a8
g8a+8a4^8>c+8d4^8
<e16f+16g4^8a8b2
a4^8g16f+16e4
r4o3
@6
<<[g1
a1]4