;SEQ_Circuit2 ported & sequenced by AirMario

#0 w220 t50 
#0 @6 q7f  v220 y10
r8>g+16r16g+8^16^32r32a+8r16b8r16>c16^32r32o5g+32r16^32d+32r16^32f+16g+16r16b8^16g+16r8^16d+32r16^32f+32r16^32d+16r16c+32r32d16r16d+16^32r4^8^16^32g+16r16d+16r16f+16g+16r16b8^16g+16r8^16b32r16^32>c+16r16<b32r16^32>c+32r16^32d+16r16c+16<b16r16g+8^16f+16r16g+16r16d+16r16f+16g+16r16b8^16g+16^32r8^32d+16r16f+16r16d+16r16c+16d32r16^32d+4^32r4^32>c+16r16<b16r16>c+16r16d+16r16c+16<b16r16g+8r16f+16g+2^16r1^1^1^1^2g+16r16d+32r16^32f+16g+16r16b8^16g+16^32r8^32d+16r16f+16r16d+16r16c+16d32r16^32d+4^32r8^32d+16r16>c+16r16<b16r16>c+16r16d+16r16c+16<b16r16g+8^16f+16g+4r1^1^1^1^1^1^4^8^16>d+16r16c+16d+16r16c16r1^1^1^1^1^2^8d+16r16c+16d+16r16c16r1^1^1^1o5b16a+16g+16r16a+16r16f16g+4^8^16^32r8^16^32>d+16r16c+16r16c16^32r32c+16^32r32c16r16<a+16r16g+16r16>c16^32r32c+16d+16r16c32r16^32o5g+16f+2^8^16^32r2^4^32o6d+16c+16<b16r16>c+16r16o5g+16>c+4^8^16^32r8^16^32<f16r16g+16r16b16^32r32>d+8<b16r16g+16r1^1^8^16b16a+16g+16r16a+16r16f16g+4^8^16^32r8^16^32>d+16r16c+16r16c16^32r32c+16^32r32c16r16<a+16r16g+16r16>d+16^32r32f16d+16r16c32r16^32o5g+16d+2^8^16^32r2^4^32b16a+16g+16r16a+16r16f16g+4^8^16^32r8^16^32d+16r16f16r16g+16^32r32b8g+16r16f16r4^16>d+32r16^32d+32r8^32d+32r8^32d+4^8r1<g+32r16^32d+32r16^32f+16g+16r16b8^16g+16r8^16d+32r16^32f+32r16^32d+16r16c+32r32d16r16d+16^32r4^8^16^32g+16r16d+16r16f+16g+16r16b8^16g+16r8^16b32r16^32>c+16r16<b32r16^32>c+32r16^32d+16r16c+16<b16r16g+8^16f+16r16g+16r16d+16r16f+16g+16r16b8^16g+16^32r8^32d+16r16f+16r16d+16r16c+16d32r16^32d+4^32r4^32>c+16r16<b16r16>c+16r16d+16r16c+16<b16r16g+8r16f+16g+2^16

#1 w220 t50
#1 @11 q7f v120 y10
e4^8^32r16^32c+16^32r32r16^32d16^32r16^32d+8g+16r16d+16r16f+16g+16r16b8^16g+16r8^16d+32r16^32>f+32r16^32d+16r16c+32r32d16r16d+16^32r4^8^16^32<g+16r16d+16r16f+16g+16r16b8^16g+16r8^16b32r16^32>c+16r16<b32r16^32>c+32r16^32d+16r16c+16<b16r16g+8^16f+16^32r32g+16r16d+32r16^32f+16g+16r16b8^16g+16^32r8^32d+16r16f+16r16d+16r16c+16d32r16^32d+4^32r4^32>c+16r16<b16r16>c+16r16d+16r16c+16<b16r16g+8^16f+16g+2^16r2b32r16^32f+32r16^32g+16b16r16>d+8^16r16<b16r8d+32r16^32b32r16^32f+16r16f+32r32g16r16g+16^32r4^8^16^32b32r16^32f+32r16^32g+16b16r16>d+8^16r16<b16r8d+32r16^32>c+16r16<b32r16^32>c+32r16^32d+16r16c+16<b16r16g+8^16f+16^32r32g+16r16d+32r16^32f+16g+16r16b8^16g+16^32r8^32d+16r16f+16r16d+16r16c+16d32r16^32d+4^32r8^32d+16r16>c+16r16<b16r16>c+16r16d+16r16c+16<b16r16g+8^16f+16g+4r2^4^16g+32r16^32>d+16r16f+16r16d16d+16r16f+16r16d16d+16r16c16r16<g+16r16>d+16r16f+16r2^8^16<g+32r16^32>d+16r16f+16r16d16d+16r16f+16r16d16d+16r16c16r1^16<g+32r16^32>d+16r16f+16r16d16d+16r16f+16r16d16d+16r16c16r16<g+16r16>d+16r16f+16r2^8^16<g+32r16^32>d+16r16f+16r16d16d+16r16f+16r16d16d+16r16c16r1^16<g+32r16^32>d+16r16f+16r16d16d+16r16f+16r16d16d+16r16c16r16<g+16r16>d+16r16f+16r2^8^16<g+32r16^32>d+16r16f+16r16d16d+16r16f+16r16d16d+16r16c16r1^16<g+32r16^32>d+16r16f+16r16d16d+16r16f+16r16d16d+16r16c16r16<g+16r16>d+16r16f+16r2^8^16<g+32r16^32>d+16r16f+16r16d16d+16r16f+16r16d16d+16r16c16r1^16o5b16a+16g+16r16a+16r16f16g+4^8^16^32r8^16^32d+16r16c+16r16c16^32r32c+16^32r32c16r16<a+16r16g+16r16o6c16^32r32c+16d+16r16c32r16^32o5g+16f+2^8^16^32r32>d8r16d8^16f+32r32r16^32c+16c8^16o5b16a+16g+16r16a+16r16f16g+4^8^16^32r8^16^32d+16r16f16r16g+16^32r32b8g+16r16f16r8^16g8r32r32r8a+8r8g+8r16g4^8r32r2^4^8^16b16a+16g+16r16a+16r16f16g+4^8^16^32r8^16^32d+16r16c+16r16c16^32r32c+16^32r32c16r16<a+16r16g+16r16o6c16^32r32c+16c16r16<g+32r16^32f16d+2^8^16^32r32>d8r16d8^16f+32r32r16^32c+16c8^16o5b16a+16g+16r16a+16r16f16g+4^8^16^32r8^16^32>d+16r16f16r16g+16^32r32b8g+16r16f16r8^16<g8r32r32r8a+8r8f16^32r32r32r16^32g4^8r32r2^4^8^16g+16r16d+16r16f+16g+16r16b8^16g+16r8^16d+32r16^32>f+32r16^32d+16r16c+32r32d16r16d+16^32r4^8^16^32<g+16r16d+16r16f+16g+16r16b8^16g+16r8^16b32r16^32>c+16r16<b32r16^32>c+32r16^32d+16r16c+16<b16r16g+8^16f+16^32r32g+16r16d+32r16^32f+16g+16r16b8^16g+16^32r8^32d+16r16f+16r16d+16r16c+16d32r16^32d+4^32r4^32>c+16r16<b16r16>c+16r16d+16r16c+16<b16r16g+8^16f+16g+2^16

#2 w220 t50 
#2 @16 q7f v120 y10
e4^8^32r16^32c+16^32r32r16^32d16^32r16^32d+8<g+32r16^32o5c8<g+8^32r16^32>c32r32r32r8^32<g+8r32r16>c32r16^32c+32r16^32f+8a+8r32r32r8f+32r32r32r8^32a+8r32r16a+32r16^32<g+32r16^32g+32r16^32>f8r32r32r8d+16r8f8r32r16d+32r16^32c+16^32r8^32<g+16^32r8^32>c+16r16r16^32r8f4r32r16<g+32r16^32o5c8<g+8^32r16^32>c32r32r32r8^32<g+8r32r16>c32r8^16^32f32r16^32f16^32r32r8^32f8r16a+8r16b16^32r32c+16r16g+32r16^32c+8r8c+8r16f+8r32r32r16f8<g+32r16^32o5c8<g+8^32r16^32>d+32r32r32r8^32<g+8r32r16>c32r16^32<g+32r16^32o5c8<g+8^32r16^32>c32r32r32r8^32<g+8r32r16>c32r16^32c+32r16^32f+8a+8r32r32r8f+32r32r32r8^32a+8r32r16a+32r16^32<g+32r16^32g+32r16^32>f8r32r32r8d+16r8f8r32r16d+32r16^32c+16^32r8^32<g+16^32r8^32>c+16r16r16^32r8f4r32r16<g+32r16^32o5c8<g+8^32r16^32>c32r32r32r8^32<g+8r32r16>c32r8^16^32f32r16^32f16^32r32r8^32f8r16a+8r16b16^32r32c+16r16g+32r16^32c+8r8c+8r16f+8r32r32r16f8<g+32r16^32o5c8<g+8^32r16^32>d+32r32r32r8^32<g+8r32r16>c32r16^32<g+32r16^32o5c8<g+8^32r16^32>c32r32r32r8^32<g+8r32r16>c32r16^32<g+32r16^32>d+32r16^32f8r32r32r8<g+16r8>c+8^32r32d+32r16^32<g+32r16^32o5c8<g+8^32r16^32>c32r32r32r8^32<g+8r32r16>c32r16^32c+16^32r8^32<g+16^32r8^32a+8r32r16>c+4r32r16<g+32r16^32o5c8<g+8^32r16^32>c32r32r32r8^32<g+8r32r16>c32r16^32<g+32r16^32>d+32r16^32f8r32r32r8<a+16r8>c+8^32r32d+32r16^32<g+16r16>g+32r16^32b8r8f8r16f+8r32r32r16f8c+16r16f32r16^32f+32r32r16^32c+32r16^32d+8r32r16f8r16c+8<g+32r16^32o5c8<g+8^32r16^32>c32r32r32r8^32<g+8r32r16>c32r16^32<g+32r16^32>d+32r16^32f8r32r32r8<g+16r8>c+8^32r32d+32r16^32<g+32r16^32o5c8<g+8^32r16^32>c32r32r32r8^32<g+8r32r16>c32r16^32c+16^32r8^32<g+16^32r8^32a+8r32r16>c+4r32r16<g+32r16^32o5c8<g+8^32r16^32>c32r32r32r8^32<g+8r32r16>c32r16^32<g+32r16^32>d+32r16^32f8r32r32r8<a+16r8>c+8^32r32d+32r16^32<g+32r16^32o5c8<g+8^32r16^32>c32r32r32r8^32<g+8r32r16>c32r16^32<g+32r16^32o5c8<g+8^32r16^32>d+32r32r32r8^32<g+8r32r16>c32r16^32g+16r8^16c+32r32r8^16^32e8r32r16g+16r4^8c+32r16^32g+16r8^16g+8r32r16g+16r4<g+32r16^32o5c8<g+8^32r16^32>c32r32r32r8^32<g+8r32r16>c32r16^32<g+32r16^32o5c8<g+8^32r16^32>c32r32r32r8^32<g+8r32r16>c32r4^16^32c+32r32r8^16^32e8r32r16g+16r4^8c+32r16^32g+16r8^16e8r32r16g+16r4g8r32r32r8a+8r8g+8r16g4r32r16<g+32r16^32>d+32r16^32f8r32r32r8<a+16r8>c+8^32r32d+32r16^32<c+16r8^16>c+32r32r8^16^32e8r32r32r16g+16r4^8c+32r16^32g+16r8^16e8r32r32r16g+16r4<g+32r16^32o5c8<g+8^32r16^32>c32r32r32r8^32<g+8r32r16>c32r16^32<g+32r16^32>d+32r16^32f8r32r32r8<a+16r8>c+8^32r32d+32r16^32<c+16r8^16>c+32r32r8^16^32e8r32r32r16g+16r4^8c+32r16^32g+16r8^16e8r32r32r16g+16r4g8r32r32r8a+8r8f16^32r32r32r16^32g4r32r16c+16r16f32r16^32f+32r32r16^32c+32r16^32d+8r32r16f8r16c+8<g+32r16^32o5c8<g+8^32r16^32>c32r32r32r8^32<g+8r32r16>c32r16^32c+32r16^32f+8a+8r32r32r8f+32r32r32r8^32a+8r32r16a+32r16^32<g+32r16^32g+32r16^32>f8r32r32r8d+16r8f8r32r16d+32r16^32c+16^32r8^32<g+16^32r8^32>c+16r16r16^32r8f4r32r16<g+32r16^32o5c8<g+8^32r16^32>c32r32r32r8^32<g+8r32r16>c32r8^16^32f32r16^32f16^32r32r8^32f8r16a+8r16b16^32r32c+16r16g+32r16^32c+8r8c+8r16f+8r32r32r16f8<g+32r16^32o5c8<g+8^32r16^32>d+32r32r32r8^32<g+8r32r16>c32

#3 w220 t50 
#3 @9 q7f v120 y10
o2e2f+8^16g8r16g+8g+8^32r32g+32r32>g+8o2g+16>c8^16c+8d+8g+8c+8^16r16>c+16<c+16^32r32f8^16f+8g+8b8<g+8^32r32g+32r32>g+8o2g+16>c8^16c+8d+8g+8c+8^16r16<f8f16f+8^32r32g8g8g+8g+8^32r32g+32r32>g+8o2g+16>c8^16c+8d+8g+8c+8^16r16>c+16<c+16^32r32f8^16f+8g+8b8c+8^16r16g+8o2g+16>f8^32r32f+8g8g+8<g+8^32r32g+32r32>g+8o2g+16>c8^16c+8d+8g+8<g+8^32r32g+32r32>g+8o2g+16>c8^16c+8d+8g+8c+8^16r16>c+16<c+16^32r32f8^16f+8g+8b8<g+8^32r32g+32r32>g+8o2g+16>c8^16c+8d+8g+8c+8^16r16<f8f16f+8^32r32g8g8g+8g+8^32r32g+32r32>g+8o2g+16>c8^16c+8d+8g+8c+8^16r16>c+16<c+16^32r32f8^16f+8g+8b8c+8^16r16g+8o2g+16>f8^32r32f+8g8g+8<g+8^32r32g+32r32>g+8o2g+16>c8^16c+8d+8g+8<g+8^32r32>g+32r32<g+8g+16>c8^16c+8d+8g+8<g+8^32r32>g+32r32<g+8g+16>c8^16c+8d+8g+8<g+8^32r32>g+32r32<g+8g+16>c8^16c+8d+8g+8<g+8^16r16>c8o2g+16f+8^32r32a+8>c+8<f+8g+8^32r32>g+32r32<g+8g+16>c8^16c+8d+8g+8<g+8^32r32>g+32r32<g+8g+16>c8^16c+8d+8g+8<g+8^32r32>g+32r32<g+8g+16>c8^16c+8d+8g+8c+8^16r16<f8f16f+8^32r32g8g8g+8g+8^32r32>g+32r32<g+8g+16>c8^16c+8d+8g+8<g+8^32r32>g+32r32<g+8g+16>c8^16c+8d+8g+8<g+8^32r32>g+32r32<g+8g+16>c8^16c+8d+8g+8<g+8^16r16>c8o2g+16f+8^32r32a+8>c+8<f+8g+8^32r32>g+32r32<g+8g+16>c8^16c+8d+8g+8<g+8^32r32>g+32r32<g+8g+16>c8^16c+8d+8g+8<g+8^32r32>g+32r32<g+8g+16>c8^16c+8d+8g+8c+8^16r16<f8f16f+8^32r32g8g8g+8>c+8^16r16<f8f16f+8^32r32g8g8g+8>c+8^16r16<f8f16f+8^32r32g8g8g+8g+8^16r16>c8o2g+16>c+8^32r32d8d+8f+8<g+8^16r16>c8o2g+16>c+8^32r32d8d+8f+8c+8^16r16<f8f16f+8^32r32g8g8g+8>c+8^16r16<f8f16f+8^32r32g8g8g+8>d+8^16r16g8d+16g+8^32r32a8a+8>d+8<c+8^16r16>c+8o2f16f+8^32r32g8g+8b8>c+8^16r16<f8f16f+8^32r32g8g8g+8>c+8^16r16<f8f16f+8^32r32g8g8g+8g+8^16r16>c8o2g+16>c+8^32r32d8d+8f+8<g+8^16r16>c8o2g+16>c+8^32r32d8d+8f+8c+8^16r16<f8f16f+8^32r32g8g8g+8>c+8^16r16<f8f16f+8^32r32g8g8g+8>d+8^16r16g8d+16g+8^32r32a8a+8>d+8d+8^16r16c+8o3b16>c+8^32r32<b8g+8f+8<g+8^32r32g+32r32>g+8o2g+16>c8^16c+8d+8g+8c+8^16r16>c+16<c+16^32r32f8^16f+8g+8b8<g+8^32r32g+32r32>g+8o2g+16>c8^16c+8d+8g+8c+8^16r16<f8f16f+8^32r32g8g8g+8g+8^32r32g+32r32>g+8o2g+16>c8^16c+8d+8g+8c+8^16r16>c+16<c+16^32r32f8^16f+8g+8b8c+8^16r16g+8o2g+16>f8^32r32f+8g8g+8<g+8^32r32g+32r32>g+8o2g+16>c8^16c+8d+8g+8

#4 w220 t50 
#4 @9 q7f v120 y10
o2e2f+8^16g8r16g+8r32g+8r16g+32r32>g+16^32r32o2g+16>c8^32r32c+8d+16^32r32g+16^32r32c+8^32r16^32>c+16<c+16r16f8^32r32f+8g+16^32r32b16^32r32<g+8r16g+32r32>g+16^32r32o2g+16>c8^32r32c+8d+16^32r32g+16^32r32c+8^16r16<f16^32r32f16f+8^32r32g16^32r32g16^32r32g+16^32r32g+8r16g+32r32>g+16^32r32o2g+16>c8^32r32c+8d+16^32r32g+16^32r32c+8^32r16^32>c+16<c+16r16f8^32r32f+8g+16^32r32b16^32r32c+8^16r16g+16^32r32o2g+16>f8^32r32f+16^32r32g16^32r32g+16^32r32<g+8r16g+32r32>g+16^32r32o2g+16>c8^32r32c+8d+16^32r32g+16^32r32<g+8r16g+32r32>g+16^32r32o2g+16>c8^32r32c+8d+16^32r32g+16^32r32c+8^32r16^32>c+16<c+16r16f8^32r32f+8g+16^32r32b16^32r32<g+8r16g+32r32>g+16^32r32o2g+16>c8^32r32c+8d+16^32r32g+16^32r32c+8^16r16<f16^32r32f16f+8^32r32g16^32r32g16^32r32g+16^32r32g+8r16g+32r32>g+16^32r32o2g+16>c8^32r32c+8d+16^32r32g+16^32r32c+8^32r16^32>c+16<c+16r16f8^32r32f+8g+16^32r32b16^32r32c+8^16r16g+16^32r32o2g+16>f8^32r32f+16^32r32g16^32r32g+16^32r32<g+8r16g+32r32>g+16^32r32o2g+16>c8^32r32c+8d+16^32r32g+16^32r32<g+8r16>g+32r32<g+16^32r32g+16>c8^32r32c+8d+16^32r32g+16^32r32<g+8r16>g+32r32<g+16^32r32g+16>c8^32r32c+8d+16^32r32g+16^32r32<g+8r16>g+32r32<g+16^32r32g+16>c8^32r32c+8d+16^32r32g+16^32r32<g+8^16r16>c8o2g+16f+8^32r32a+8>c+8<f+8g+8r16>g+32r32<g+16^32r32g+16>c8^32r32c+8d+16^32r32g+16^32r32<g+8r16>g+32r32<g+16^32r32g+16>c8^32r32c+8d+16^32r32g+16^32r32<g+8r16>g+32r32<g+16^32r32g+16>c8^32r32c+8d+16^32r32g+16^32r32c+8^16r16<f16^32r32f16f+8^32r32g16^32r32g16^32r32g+16^32r32g+8r16>g+32r32<g+16^32r32g+16>c8^32r32c+8d+16^32r32g+16^32r32<g+8r16>g+32r32<g+16^32r32g+16>c8^32r32c+8d+16^32r32g+16^32r32<g+8r16>g+32r32<g+16^32r32g+16>c8^32r32c+8d+16^32r32g+16^32r32<g+8^16r16>c8o2g+16f+8^32r32a+8>c+8<f+8g+8r16>g+32r32<g+16^32r32g+16>c8^32r32c+8d+16^32r32g+16^32r32<g+8r16>g+32r32<g+16^32r32g+16>c8^32r32c+8d+16^32r32g+16^32r32<g+8r16>g+32r32<g+16^32r32g+16>c8^32r32c+8d+16^32r32g+16^32r32c+8^16r16<f16^32r32f16f+8^32r32g16^32r32g16^32r32g+16^32r32>c+8^16r16<f16^32r32f16f+8^32r32g16^32r32g16^32r32g+16^32r32>c+8^16r16<f16^32r32f16f+8^32r32g16^32r32g16^32r32g+16^32r32g+8^16r16>c16^32r32o2g+16>c+8^32r32d16^32r32d+16^32r32f+16^32r32<g+8^16r16>c16^32r32o2g+16>c+8^32r32d16^32r32d+16^32r32f+16^32r32c+8^16r16<f16^32r32f16f+8^32r32g16^32r32g16^32r32g+16^32r32>c+8^16r16<f16^32r32f16f+8^32r32g16^32r32g16^32r32g+16^32r32>d+8^16r16g16^32r32d+16g+8^32r32a16^32r32a+16^32r32>d+16^32r32<c+8^16r16>c+16^32r32o2f16f+8^32r32g16^32r32g+16^32r32b16^32r32>c+8^16r16<f16^32r32f16f+8^32r32g16^32r32g16^32r32g+16^32r32>c+8^16r16<f16^32r32f16f+8^32r32g16^32r32g16^32r32g+16^32r32g+8^16r16>c16^32r32o2g+16>c+8^32r32d16^32r32d+16^32r32f+16^32r32<g+8^16r16>c16^32r32o2g+16>c+8^32r32d16^32r32d+16^32r32f+16^32r32c+8^16r16<f16^32r32f16f+8^32r32g16^32r32g16^32r32g+16^32r32>c+8^16r16<f16^32r32f16f+8^32r32g16^32r32g16^32r32g+16^32r32>d+8^16r16g16^32r32d+16g+8^32r32a16^32r32a+16^32r32>d+16^32r32d+8^16r16c+16^32r32o3b16>c+8^32r32<b16^32r32g+16^32r32f+16^32r32<g+8r16g+32r32>g+16^32r32o2g+16>c8^32r32c+8d+16^32r32g+16^32r32c+8^32r16^32>c+16<c+16r16f8^32r32f+8g+16^32r32b16^32r32<g+8r16g+32r32>g+16^32r32o2g+16>c8^32r32c+8d+16^32r32g+16^32r32c+8^16r16<f16^32r32f16f+8^32r32g16^32r32g16^32r32g+16^32r32g+8r16g+32r32>g+16^32r32o2g+16>c8^32r32c+8d+16^32r32g+16^32r32c+8^32r16^32>c+16<c+16r16f8^32r32f+8g+16^32r32b16^32r32c+8^16r16g+16^32r32o2g+16>f8^32r32f+16^32r32g16^32r32g+16^32r32<g+8r16g+32r32>g+16^32r32o2g+16>c8^32r32c+8d+16^32r32g+16^32

#5 w220 t50 
#5 @27 q7f v180 y10
r8<g+16r16g+4a+8r16b8^32r32>c16^32r32<g+32r16^32d+32r16^32f+16g+16r16b8^16g+16r8^16d+32r16^32f+32r16^32d+16r16c+32r32d16r16d+16^32r4^8^16^32g+16r16d+16r16f+16g+16r16b8^16g+16r8^16b32r16^32>c+16r16<b32r16^32>c+32r16^32d+16r16c+16<b16r16g+8^16f+16r16g+16r16d+16r16f+16g+16r16b8^16g+16^32r8^32d+16r16f+16r16d+16r16c+16d32r16^32d+4^32r4^32>c+16r16<b16r16>c+16r16d+16r16c+16<b16r16g+8r16f+16g+2^16r2>g+32r16^32d+32r16^32<g+16>g+16r16d+8^16r16g+16r8d+32r16^32<b32r16^32f+16r16f+32r32g16r16g+16^32r4^8^16^32>g+32r16^32d+32r16^32<g+16>g+16r16d+8^16r16g+16r8d+32r16^32>c+16r16<b32r16^32>c+32r16^32d+16r16c+16<b16r16g+8^16f+16^32r32<g+16r16d+32r16^32f+16g+16r16b8^16g+16^32r8^32d+16r16f+16r16d+16r16c+16d32r16^32d+4^32r8^32d+16r16>f16r16d+16r16f16r16f+16r16f16d+16r16<g+8^16a+16>d+4r1^1^1^1^1^1^4^8^16d+16r16c+16d+16r16c16r1^1^1^1^1^2^8d+16r16c+16d+16r16c16r1^1^1^1b16a+16g+16r16a+16r16f16g+4^8^16^32r8^16^32>d+16r16c+16r16c16^32r32c+16^32r32c16r16<a+16r16g+16r16>c16^32r32c+16d+16r16c32r16^32<g+16f+2^8^16^32r2^4^32d+16c+16<b16r16>c+16r16o4g+16>c+4^8^16^32r8^16^32<f16r16g+16r16b16^32r32>d+8<b16r16g+16r1^1^8^16o5b16a+16g+16r16a+16r16f16g+4^8^16^32r8^16^32>d+16r16c+16r16c16^32r32c+16^32r32c16r16<a+16r16g+16r16d+16^32r32f16d+16r16c32r16^32o4g+16>d+2^8^16^32r2^4^32b16a+16g+16r16a+16r16f16g+4^8^16^32r8^16^32d+16r16f16r16g+16^32r32b8g+16r16f16r4^16>d+32r16^32d+32r8^32d+32r8^32d+4^8r1o4g+32r16^32d+32r16^32f+16g+16r16b8^16g+16r8^16d+32r16^32f+32r16^32d+16r16c+32r32d16r16d+16^32r4^8^16^32g+16r16d+16r16f+16g+16r16b8^16g+16r8^16b32r16^32>c+16r16<b32r16^32>c+32r16^32d+16r16c+16<b16r16g+8^16f+16r16g+16r16d+16r16f+16g+16r16b8^16g+16^32r8^32d+16r16f+16r16d+16r16c+16d32r16^32d+4^32r4^32>c+16r16<b16r16>c+16r16d+16r16c+16<b16r16g+8r16f+16g+2^16

#6 w220 t50 
#6 @11 q7f v120 y10
o3g16g16a4^8g8g16g16o7e16o3g8g16o4c+8o3g16g16o7g8o3g16g16g8g16g16o7g8o3g16g16g8g16g16o7g8o3g16g16g16o7g16o3g16g16o7g16o3a8g16g8g16g16o7g8o3g16g16g8g16g16o7g8o3g16g16g8g16g16o7g8o3g16g16g8g16g16o7g16o3a8g16g8g16g16o7g8o3g16g16g8g16g16o7g8o3g16g16g8g16g16o7g8o3g16g16g8g16g16o7g16o3a8g16g8g16g16o7g8o3g16g16g8g16g16o7g8o3g16g16g8g16g16o7g8o3g16g16g16o7g16o3g16g16o7g16o3a8g16g8g16g16o7g8o3g16g16g8g16g16o7g8o3g16g16g8g16g16o7g8o3g16g16g8g16g16o7g16o3a8g16g8g16g16o7g8o3g16g16g8g16g16o7g8o3g16g16g8g16g16o7g8o3g16g16g8g16g16o7g16o3a8g16g8g16g16o7g8o3g16g16g8g16g16o7g8o3g16g16g8g16g16o7g8o3g16g16g8g16g16o7g16o3a8g16g8g16g16o7g8o3g16g16g8g16g16o7g8o3g16g16g8g16g16o7g8o3g16g16g8g16g16o7g16o3a8g16g8g16g16o7g8o3g16g16g8g16g16o7g8o3g16g16g8g16g16o7g8o3g16g16g8g16g16o7g16o3a8g16g8g16g16o7g8o3g16g16g8g16g16o7g8o3g16g16g8g16g16o7g8o3g16g16g8g16g16o7g16o3a8g16g8g16g16o7g8o3g16g16g8g16g16o7g8o3g16g16g8g16g16o7g8o3g16g16g8g16g16o7g16o3a8g16g8g16g16o7g8o3g16g16g8g16g16o7g8o3g16g16g8g16g16o7g8o3g16g16g8g16g16o7g16o3a8g16g8g16g16o7g8o3g16g16g8g16g16o7g8o3g16g16g8g16g16o7g8o3g16g16g8g16g16o7g16o3a8g16g8g16g16o7g8o3g16g16g8g16g16o7g8o3g16g16g8g16g16o7g8o3g16g16g8g16g16o7g16o3a8g16g8g16g16o7g8o3g16g16g8g16g16o7g8o3g16g16g8g16g16o7g8o3g16g16g8g16g16o7g16o3a8g16g8g16g16o7g8o3g16g16g8g16g16o7g8o3g16g16g8g16g16o7g8o3g16g16g8g16g16o7g16o3a8g16g8g16g16o7g8o3g16g16g8g16g16o7g8o3g16g16g8g16g16o7g8o3g16g16g8g16g16o7g8o3g16g16g8g16g16o7g8o3g16g16g8g16g16o7g16o3a8g16g8g16g16o7g8o3g16g16g16o7g16o3g16g16o7g8o3g16g16g8g16g16o7g8o3g16g16g8g16g16o7g16o3a8g16g8g16g16o7g8o3g16g16g8g16g16o7g8o3g16g16g8g16g16o7g8o3g16g16g8g16g16o7g16o3a8g16g8g16g16o7g8o3g16g16g8g16g16o7g8o3g16g16g8g16g16o7g8o3g16g16g8g16g16o7g8o3g16g16g8g16g16o7g8o3g16g16g16o7g16o3g16g16o7g8o3g16g16g8g16g16o7g8o3g16g16g8g16g16o7g16o3a8g16g8g16g16o7g8o3g16g16g8g16g16o7g8o3g16g16g8g16g16o7g8o3g16g16g8g16g16o7g16o3a8g16g8g16g16o7g8o3g16g16g8g16g16o7g8o3g16g16g8g16g16o7g8o3g16g16g8g16g16o7g16o3a8g16g8g16g16o7g8o3g16g16g8g16g16o7g8o3g16g16o7f+8o3g16g16o7g8o3g16g16g8g16g16o7g8o3g16g16g8g16g16o7g8o3g16g16g16o7g16o3g16g16o7g16o3a8g16g8g16g16o7g8o3g16g16g8g16g16o7g8o3g16g16g8g16g16o7g8o3g16g16g8g16g16o7g16o3a8g16g8g16g16o7g8o3g16g16g8g16g16o7g8o3g16g16g8g16g16o7g8o3g16g16g8g16g16o7g16o3a8g16g8g16g16o7g8o3g16g16g8g16g16o7g8o3g16g16g8g16g16o7g8o3g16g16g16o7g16o3g16g16o7g16o3a8;