

#0 w220  t55
#0 @1 q7f  v220 y10
c8r8c8r4f16e16f4f8r8f8r4a+16a16a+4f4a8g8f8e8f8g8d+8a+4a4g8a+4f4a8g8f8e8f8a8g8a+4a4>d+4<a+8>f2^8c8f8c8<a+8>d+4d4c8<a+4a8>d8<f+8a8>d8<f+8a8>d8<a8>d8f+8<a8>d8f+8<a8>d8<d4^8<a4^8>d4<a4^8>d4^8e4d4^8a4^8g4<a4^8>f+4^8e4d4^8<a4^8>d4f+4^8e4^8c+4d4^8a4^8g4<a4^8>f+4^8d4c4^8g4^8c8e8c4^8g4d8e8g8a8g+8a8>d4^8c8<b8a4^8d4^8d+8e8f4a8g8f8e8f8g8d+8a+4a4g8a+4f4a8g8f8e8f8a8g8a+4a4>d+4<a+8>f2^8c8f8c8<a+8>d+4d4c8<a+4a8>d8<f+8a8>d8<f+8a8>d8<a8>d8f+8<a8>d8f+8<a8>d8<d4^8<a4^8>d4<a4^8>d4^8e4d4^8a4^8g4<a4^8>f+4^8e4d4^8<a4^8>d4f+4^8e4^8c+4d4^8a4^8g4<a4^8>f+4^8d4c4^8g4^8c8e8c4^8g4d8e8g8a8g+8a8>d4^8c8<b8a4^8d4^8d+8e8

#1 w220  t55
#1 @6 q7f  v220 y10
f8c16f16a2c4>c8<a16>c16f2<g4>c2^8<a8>c8a8g8^16d+16d+2^4c2^8<a8>c8f8d+8d+16f16g2^4a2^8f8a8>c8<a+8^16a16g2a+4a1^1<a4^8g4^8f+4e4^8f+4^8g4a8f+16a16>d2^4<f+8d16f+16a2^4a4^8g4^8f+4b4^8a4^8g4a8f+16a16>d2^4<f+8d16f+16a2^4g8e16g16>c2^4<g8e16g16>c2c+4d4^8a4^8g8f+8d2^4<f+16g16a16b16>c2^8<a8>c8a8g8^16d+16d+2^4c2^8<a8>c8f8d+8d+16f16g2^4a2^8f8a8>c8<a+8^16a16g2a+4a1^1<a4^8g4^8f+4e4^8f+4^8g4a8f+16a16>d2^4<f+8d16f+16a2^4a4^8g4^8f+4b4^8a4^8g4a8f+16a16>d2^4<f+8d16f+16a2^4g8e16g16>c2^4<g8e16g16>c2c+4d4^8a4^8g8f+8d2^4<f+16g16a16b16

#2 w220  t55
#2 @5 q7f  v220 y10
<f16r8^16f16r16>c4<c8f8c8d+16r8^16d+16r16>f4o3a+8>d+8e8f4c8f4c8f8c8g4d+8g4d+8g8d+8f4c8f4c8f8c8g4d+8g4d+8g8d+8a4f8a4f8a8f8a+4g8a+4g8a+8g8f+4d8f+4d8f+8d8d4<a8>d4<a8>d8<a8>f+4d8f+4d8f+8d8g4e8g4e8g8e8f+4d8f+4d8f+8d8f+4d8f+4d8e8a8f+4d8f+4d8f+8d8g4e8g4e8g8e8f+4d8f+4d8f+8d8f+4d8f+4d8f+8d8g4c8g4c8g8c8g4c8g4c8e8g8a4^8>f+4<d8a8>d8c8^16e16f+4^8<d8d+8e8f4c8f4c8f8c8g4d+8g4d+8g8d+8f4c8f4c8f8c8g4d+8g4d+8g8d+8a4f8a4f8a8f8a+4g8a+4g8a+8g8f+4d8f+4d8f+8d8d4<a8>d4<a8>d8<a8>f+4d8f+4d8f+8d8g4e8g4e8g8e8f+4d8f+4d8f+8d8f+4d8f+4d8e8a8f+4d8f+4d8f+8d8g4e8g4e8g8e8f+4d8f+4d8f+8d8f+4d8f+4d8f+8d8g4c8g4c8g8c8g4c8g4c8e8g8a4^8>f+4<d8a8>d8c8^16e16f+4^8<d8d+8e8

#3 w220  t55
#3 @10 q7f  v220 y10
o3e32r32g+32r8^32e32r32g+32r4^32e32r32a+32r32e32r32g+32r32e32r32g+32r32e32r32g+32r8^32e32r32g+32r4^32a+32r32a+32r32e32r32g+32r32a+32e32r32e32e32r32g+32r8^32a+32r32g+32r4^32e32r32e32r32a+32r32g+32r32e32r32g+32r32e32r32g+32r8^32a+32r32g+32r4^32e32r32e32r32e32r32g+32r8^32a+32r32g+32r8^32a+32r32g+32r4^32e32r32e32r32a+32r32g+32r32a+32r32g+32r32e32r32g+32r8^32a+32r32g+32r4^32a+32r32e32r32a+32r32g+32r32a+32a+32r32a+32e32r32g+32r8^32a+32r32g+32r4^32a+32r32e32r32a+32r32g+32r32a+32r32g+32r32e32r32g+32r8^32a+32r32g+32r4^32a+32r32a+32r32e32r32g+32r8^32e32r32g+32r8^32a+32r32g+32r4^32e32r32a+32r32a+32r32g+32r32a+32r32g+32r32a+32r32g+32r8^32e32r32g+32r4^32e32r32a+32r32a+32r32g+32r32e32a+32r32a+32a+32r32g+32r8^32a+32r32g+32r32>c+32r8^16^32<a+32r32e32r32a+32r32g+32r8^32e32r32g+32r8^32e32r32g+32r32>c+32r8^16^32<a+32r32a+32r32a+32r32g+32r8^32a+32r32g+32r8^32a+32r32g+32r32>c+32r8^16^32<a+32r32e32r32a+32r32g+32r8^32e32r32g+32r8^32a+32r32g+32r32>c+32r8^16^32<e32r32e32r32a+32r32g+32r8^32a+32r32g+32r8^32a+32r32g+32r32>c+32r8^16^32<e32r32a+32r32e32r32g+32r8^32e32r32g+32r8^32e32r32g+32r32>c+32r8^16^32<a+32r32e32r32e32r32g+32r8^32e32r32g+32r8^32a+32r32g+32r32>c+32r8^16^32<e32r32a+32r32e32r32g+32r8^32a+32r32g+32r8^32e32r32g+32r32>c+32r8^16^32<a+32r32a+32r32a+32r32g+32r8^32a+32r32g+32r8^32e32r32g+32r32>c+32r8^16^32<a+32r32a+32r32e32r32g+32r8^32a+32r32g+32r8^32a+32r32g+32r32>c+32r8^16^32<a+32r32e32r32a+32r32g+32r8^32e32r32g+32r8^32e32r32g+32r32>c+32r8^16^32<e32r32a+32r32e32r32g+32r8^32a+32r32g+32r8^32e32r32g+32r4^32a+32r32a+32r32a+32r32g+32r32a+32a+32r32a+32a+32r32g+32r8^32a+32r32g+32r4^32e32r32e32r32a+32r32g+32r32e32r32g+32r32a+32r32g+32r8^32a+32r32g+32r4^32e32r32e32r32e32r32g+32r8^32e32r32g+32r8^32a+32r32g+32r4^32e32r32e32r32a+32r32g+32r32e32r32g+32r32e32r32g+32r8^32a+32r32g+32r4^32a+32r32e32r32a+32r32g+32r32e32e32r32a+32e32r32g+32r8^32e32r32g+32r4^32a+32r32e32r32e32r32g+32r32e32r32g+32r32e32r32g+32r8^32e32r32g+32r4^32a+32r32a+32r32a+32r32g+32r8^32e32r32g+32r8^32e32r32g+32r4^32e32r32e32r32e32r32g+32r32a+32r32g+32r32a+32r32g+32r8^32a+32r32g+32r4^32a+32r32e32r32e32r32g+32r32e32a+32r32a+32a+32r32g+32r8^32e32r32g+32r32>c+32r8^16^32<e32r32a+32r32e32r32g+32r8^32e32r32g+32r8^32e32r32g+32r32>c+32r8^16^32<e32r32e32r32a+32r32g+32r8^32a+32r32g+32r8^32a+32r32g+32r32>c+32r8^16^32<e32r32e32r32a+32r32g+32r8^32a+32r32g+32r8^32a+32r32g+32r32>c+32r8^16^32<a+32r32e32r32a+32r32g+32r8^32e32r32g+32r8^32a+32r32g+32r32>c+32r8^16^32<e32r32a+32r32e32r32g+32r8^32a+32r32g+32r8^32e32r32g+32r32>c+32r8^16^32<a+32r32e32r32e32r32g+32r8^32a+32r32g+32r8^32a+32r32g+32r32>c+32r8^16^32<e32r32a+32r32e32r32g+32r8^32e32r32g+32r8^32e32r32g+32r32>c+32r8^16^32<a+32r32a+32r32a+32r32g+32r8^32a+32r32g+32r8^32e32r32g+32r32>c+32r8^16^32<a+32r32a+32r32a+32r32g+32r8^32a+32r32g+32r8^32e32r32g+32r32>c+32r8^16^32<a+32r32e32r32e32r32g+32r8^32e32r32g+32r8^32a+32r32g+32r32>c+32r8^16^32<e32r32e32r32a+32r32g+32r8^32a+32r32g+32r8^32a+32r32g+32r4^32a+32r32e32r32e32r32g+32r32a+32a+32r32a+32