;-- HEADER AUTOMATICALLY GENERATED --
$ED $80 $6D $2B 
$ED $80 $7D $00 
$F0
;-- END OF HEADER -------------------

#0 w220  t37
#0 @6 q7f  v220 y10
o4[f8c16f8a8>c16d+16d+8d8c16<a+16a16a+16a16a+16a16a+16>c2^8^16]2
@11o5
[f8d8e16f16g16f4^16e4]2
d16e16f16c8e8f16<a+16>e16f16c8<a+16a16g2^16>c2;

#1 w220  t37
#1 @6 q7f  v220 y10
o4[c8<a16>c8f8a16a+16a+8a+8a16f16f16g16f16g16f16g16g2^8^16]2
@11o5
[d8<a+8>c+16d16e16d4^16c4]2
<a+16>c16d16<a8>c8c16<g16a+16a+16a8f16f16d+2^16g2;

#2 w220  t37
#2 @6 q7f  v220 y10
o3[a8f16a8>c8f16g16g8f8f16c16c16d+16d+16d+16d+16d+16d+2^8^16]2
@11o4
[f8f8a16a16a16a4^16g4]2
f16f16f16f8f8f16d16g16g16f8c16c16<a+2^16>e2;

#3 w220  t37
#3 @5 q7f  v220 y10
o3[f16>c16<c16>c16]4
[<d+16a+16<a+16>a+16]4
[f16>c16<c16>c16]4
[<d+16a+16<a+16>a+16]4
a+16f16a+16f16a16e16a16e16d16>d16<a16>d16<c16>c16<g16>c16<a+16f16b16f16a16e16a16e16d16>d16<a16>d16<c16>c16<g16>c16<a+16f16a+16f16a16f16>c16<f16g16d16g16d16f16c16f16d+8a+16<a+16>a+16d+16a+16<a+16>a+16g16>c16<g16e16c16c16d16e16;

#4 w220  t37
#4 @2 q7f  v220 y10
[o3f16a16>c16f16<a16>c16f16a16<a+16>d+16g16a+16f16a16>c16f16o3d+16g16a+16>d+16<g16a+16>d+16g16f16a16>c16d+16g16d+16c16<a16]2
<a+16>d16f16a+16<a16>c+16e16a16d16f16a16>d16e16c16<g16e16<a+16>d16f16a+16<a16>c+16e16a16d16f16a16>d16e16c16<g16e16<a+16>d16f16a+16f16a16>c16f16<g16a+16>d16g16f16c16<f16g8a+16>d+16g16a+16g16d+16<a+16>c16<c16e16g16>c16e16g16>c16;

#5 w220  t37
#5 @10 q7f v255 y10
o3
[@10c8@29c8^16@10c16@29c8]3
@10c8@29c8^16@10c16@29c16 a16
[@10c8@29c8^16@10c16@29c8]3
@10c8@29c8^16@10c16@29c16 a16
[@10c8@29c8^16@10c16@29c8]3
@10c8@29c8^16@10c16@29c16 a16
[@29c16@10c16]7 @29c16 a16
@10c8@29c8^16@10c16@29c8@10c8@29c8@10c16@29c16 a16 a16;

#6 w220  t37
#6 @2 q7f  v220 y10
r32
[o4<f16a16>c16f16<a16>c16f16a16<a+16>d+16g16a+16f16a16>c16f16o3d+16g16a+16>d+16<g16a+16>d+16g16g16a+16>d16f16f16d16<a+16g16]2
<a+16>d16f16a+16<a16>c+16e16a16d16f16a16>d16e16c16<g16e16<a+16>d16f16a+16<a16>c+16e16a16d16f16a16>d16e16c16<g16e16<a+16>d16f16a+16f16a16>c16f16<g16a+16>d16g16f16c16<f16g8a+16>d+16g16a+16g16d+16<a+16>c16<c16e16g16>c16e16g16>c32;